HIERARCHY
ROOT Hips
{
	OFFSET 0.000000 8.830580 0.000000
	CHANNELS 6 Xposition Yposition Zposition Zrotation Yrotation Xrotation 
	JOINT Spine
	{
		OFFSET 0.000000 0.010000 0.000000
		CHANNELS 3 Zrotation Yrotation Xrotation
		JOINT Spine1
		{
			OFFSET 0.000000 2.459130 0.000000
			CHANNELS 3 Zrotation Yrotation Xrotation
			JOINT Neck
			{
				OFFSET 0.000000 2.484630 0.000000
				CHANNELS 3 Zrotation Yrotation Xrotation
				JOINT Head_virtual
				{
					OFFSET 0.000000 0.000000 0.000000
					CHANNELS 3 Zrotation Yrotation Xrotation
					JOINT Head
					{
						OFFSET 0.000000 0.927525 0.000000
						CHANNELS 3 Zrotation Yrotation Xrotation
						End Site
						{
							OFFSET 0.000000 0.000000 0.000000
						}
					}
				}
				JOINT LeftUpArm_virtual
				{
					OFFSET 0.000000 0.000000 0.000000
					CHANNELS 3 Zrotation Yrotation Xrotation
					JOINT LeftUpArm
					{
						OFFSET 1.248820 0.000000 0.000000
						CHANNELS 3 Zrotation Yrotation Xrotation
						JOINT LeftForeArm
						{
							OFFSET 2.597580 0.000000 0.000000
							CHANNELS 3 Zrotation Yrotation Xrotation
							JOINT LeftHand
							{
								OFFSET 2.455420 0.000000 0.000000
								CHANNELS 3 Zrotation Yrotation Xrotation
								End Site
								{
									OFFSET 0.000000 0.000000 0.000000
								}
							}
						}
					}
				}
				JOINT RightUpArm_virtual
				{
					OFFSET -0.000000 -0.000000 -0.000000
					CHANNELS 3 Zrotation Yrotation Xrotation
					JOINT RightUpArm
					{
						OFFSET -1.248820 -0.000000 -0.000000
						CHANNELS 3 Zrotation Yrotation Xrotation
						JOINT RightForeArm
						{
							OFFSET -2.597580 -0.000000 -0.000000
							CHANNELS 3 Zrotation Yrotation Xrotation
							JOINT RightHand
							{
								OFFSET -2.455420 -0.000000 -0.000000
								CHANNELS 3 Zrotation Yrotation Xrotation
								End Site
								{
									OFFSET 0.000000 0.000000 0.000000
								}
							}
						}
					}
				}
			}
		}
	}
	JOINT LeftUpLeg
	{
		OFFSET 1.271939 0.000000 0.000000
		CHANNELS 3 Zrotation Yrotation Xrotation
		JOINT LeftLowLeg
		{
			OFFSET 0.000000 -4.342910 0.000000
			CHANNELS 3 Zrotation Yrotation Xrotation
			JOINT LeftFoot
			{
				OFFSET 0.000000 -4.487670 0.000000
				CHANNELS 3 Zrotation Yrotation Xrotation
				JOINT LeftToeBase
				{
					OFFSET 0.000000 0.000000 1.515070
					CHANNELS 3 Zrotation Yrotation Xrotation
					End Site
					{
						OFFSET 0.000000 0.000000 0.000000
					}
				}
			}
		}
	}
	JOINT RightUpLeg
	{
		OFFSET -1.271939 0.000000 0.000000
		CHANNELS 3 Zrotation Yrotation Xrotation
		JOINT RightLowLeg
		{
			OFFSET 0.000000 -4.342910 0.000000
			CHANNELS 3 Zrotation Yrotation Xrotation
			JOINT RightFoot
			{
				OFFSET 0.000000 -4.487670 0.000000
				CHANNELS 3 Zrotation Yrotation Xrotation
				JOINT RightToeBase
				{
					OFFSET 0.000000 0.000000 1.515070
					CHANNELS 3 Zrotation Yrotation Xrotation
					End Site
					{
						OFFSET 0.000000 0.000000 0.000000
					}
				}
			}
		}
	}
}
MOTION
Frames: 11
Frame Time: 0.041667
-19.403566 8.868778 56.958455 178.281988 12.493246 176.244852 2.260171 1.137816 -15.786194 -5.973440 4.399222 21.334316 0.000000 0.000000 0.000000 10.122244 4.291590 7.648366 -7.966190 -5.529686 -85.499074 -25.615299 1.861740 6.157990 -44.221699 -9.044440 31.696800 0.000000 -21.154301 0.000000 11.179000 12.865800 -2.626280 32.714600 -2.214070 3.734985 44.781898 12.065300 -0.380005 0.000000 16.910900 0.000000 2.405310 -13.375700 -30.598200 -4.868143 -8.727791 0.962693 0.000000 0.000000 19.716900 -19.016868 12.883603 -10.254645 0.000000 0.000000 -19.395030 1.585020 18.717396 -1.373493 0.000000 0.000000 23.602400 32.957020 -5.797310 -14.764619 0.000000 0.000000 -16.247060 
-19.400157 8.868349 56.953440 178.277624 12.421417 176.293516 2.299638 1.122762 -15.913136 -5.972680 4.372350 21.366723 0.000000 0.000000 0.000000 10.065175 4.304067 7.674718 -8.002351 -5.545056 -85.405191 -25.631201 1.898020 6.126007 -44.233200 -9.066920 31.718100 0.000000 -21.143600 0.000000 11.196500 12.912000 -2.663000 32.684700 -2.170420 3.578003 44.805000 11.911700 -0.390991 0.000000 16.908001 0.000000 2.433300 -13.267500 -30.735001 -4.849433 -8.731872 0.916083 0.000000 0.000000 19.768900 -19.099794 12.774241 -10.281338 0.000000 0.000000 -19.381680 1.594919 18.674148 -1.367663 0.000000 0.000000 23.586399 32.943893 -5.816215 -14.807256 0.000000 0.000000 -16.255090 
-19.396640 8.867820 56.949525 178.273677 12.350406 176.270858 2.338621 1.103737 -15.971242 -5.975761 4.342500 21.427034 0.000000 0.000000 0.000000 9.993264 4.329700 7.707838 -8.001947 -5.568523 -85.332224 -25.609400 1.912780 6.130005 -44.277599 -9.076170 31.784201 0.000000 -21.172800 0.000000 11.413900 12.868100 -2.642110 32.686901 -2.180050 3.528992 44.768200 11.909900 -0.312988 0.000000 16.954901 0.000000 2.424260 -13.380900 -30.729601 -4.852444 -8.819813 0.941069 0.000000 0.000000 19.809500 -19.119076 12.781168 -10.298248 0.000000 0.000000 -19.453530 1.634594 18.660194 -1.304906 0.000000 0.000000 23.599501 32.933015 -5.862539 -14.869047 0.000000 0.000000 -16.257910 
-19.392981 8.866493 56.946606 178.313996 12.228417 176.229411 2.406145 1.072127 -15.947567 -5.972267 4.273606 21.430417 0.000000 0.000000 0.000000 9.905704 4.371100 7.733592 -7.980698 -5.601806 -85.313763 -25.598101 1.923590 6.056000 -44.302101 -9.003110 31.615499 0.000000 -21.284700 0.000000 11.153000 13.034700 -2.591870 32.667099 -2.239500 3.570007 44.769600 12.022300 -0.470001 0.000000 16.912001 0.000000 2.384340 -13.234400 -30.913799 -4.781994 -8.672031 0.851281 0.000000 0.000000 20.107700 -19.184189 12.523073 -10.354568 0.000000 0.000000 -19.442260 1.736330 18.670718 -1.226463 0.000000 0.000000 23.652000 32.956493 -5.951414 -14.957585 0.000000 0.000000 -16.240100 
-19.389479 8.865642 56.942887 178.336732 12.079424 176.226484 2.441308 1.014658 -15.981273 -5.955224 4.215555 21.459521 0.000000 0.000000 0.000000 9.909974 4.354738 7.727789 -7.996967 -5.605539 -85.291062 -25.614599 1.991980 6.062012 -44.305199 -9.062880 31.592800 0.000000 -21.271500 0.000000 11.075300 12.937800 -2.570300 32.676701 -2.313750 3.665009 44.696701 12.174500 -0.476013 0.000000 16.940100 0.000000 2.336750 -13.305400 -31.094200 -4.769719 -8.887130 0.808415 0.000000 0.000000 20.251101 -19.049863 12.653306 -10.390346 0.000000 0.000000 -19.487720 1.775787 18.472760 -1.145194 0.000000 0.000000 23.598600 32.909842 -5.924879 -14.964793 0.000000 0.000000 -16.234870 
-19.388431 8.865813 56.938315 178.276728 11.965067 176.123391 2.509380 1.063048 -15.946018 -6.133482 4.148830 21.455797 0.000000 0.000000 0.000000 10.079547 4.262818 7.814233 -8.115585 -5.554287 -85.257181 -25.572800 1.989740 6.075012 -44.264400 -8.960300 31.460199 0.000000 -21.385700 0.000000 10.982400 12.916300 -2.436340 32.710400 -2.204750 3.524994 44.715698 11.929400 -0.601990 0.000000 17.007799 0.000000 2.329340 -13.246600 -31.276600 -4.925958 -9.434524 1.013734 0.000000 0.000000 20.092899 -19.321943 12.938405 -10.496292 0.000000 0.000000 -19.466110 1.746652 18.357922 -0.994182 0.000000 0.000000 23.588499 32.859024 -5.892544 -15.000003 0.000000 0.000000 -16.227600 
-19.386313 8.865038 56.935961 178.276715 11.832701 176.110236 2.538524 1.007622 -15.910225 -6.112885 4.081128 21.402132 0.000000 0.000000 0.000000 10.059821 4.250742 7.864092 -8.086618 -5.586896 -85.235347 -25.664301 1.993250 6.056000 -44.196602 -8.920390 31.599600 0.000000 -21.305300 0.000000 11.124600 12.899700 -2.486910 32.700600 -2.243500 3.480988 44.665298 11.910800 -0.522003 0.000000 17.077400 0.000000 2.212780 -13.270800 -31.665100 -4.975334 -9.829481 1.015113 0.000000 0.000000 20.153900 -19.387424 13.157191 -10.600770 0.000000 0.000000 -19.481940 1.766309 18.301931 -0.912983 0.000000 0.000000 23.545200 33.097801 -5.695193 -15.106731 0.000000 0.000000 -16.093200 
-19.384687 8.864265 56.933994 178.283860 11.697075 176.116391 2.556509 0.972418 -15.883448 -6.084317 4.038183 21.334648 0.000000 0.000000 0.000000 10.133837 4.194105 7.894778 -8.025515 -5.586941 -85.217033 -25.673500 2.016870 6.118988 -44.166801 -8.901710 31.554199 0.000000 -21.381800 0.000000 11.133000 12.969500 -2.391140 32.691700 -2.344820 3.464996 44.613201 11.954200 -0.503998 0.000000 17.126400 0.000000 2.172400 -13.186800 -31.333300 -4.981525 -10.006654 0.947960 0.000000 0.000000 20.287500 -19.426349 13.188441 -10.663717 0.000000 0.000000 -19.505700 1.771718 18.209550 -0.844865 0.000000 0.000000 23.465401 32.904270 -5.837015 -15.069169 0.000000 0.000000 -16.270740 
-19.383586 8.863772 56.933318 178.306547 11.582677 176.222278 2.588685 0.952498 -15.872351 -6.093785 3.972035 21.175103 0.000000 0.000000 0.000000 10.313438 4.081210 7.968468 -8.046130 -5.562176 -85.232174 -25.643801 2.109060 6.052002 -44.176998 -8.811340 31.605700 0.000000 -21.443300 0.000000 11.181300 12.961600 -2.189880 32.700298 -2.381110 3.390015 44.571999 11.849300 -0.487000 0.000000 17.230600 0.000000 2.154080 -13.105700 -31.176399 -4.966319 -10.262049 0.788718 0.000000 0.000000 20.404600 -19.430888 13.306576 -10.736120 0.000000 0.000000 -19.516650 1.753532 18.083571 -0.887707 0.000000 0.000000 23.372299 32.864798 -5.820188 -15.041857 0.000000 0.000000 -16.332270 
-19.383129 8.863401 56.933625 178.342102 11.489672 176.397073 2.615019 0.948078 -15.883132 -6.059346 3.931635 20.975485 0.000000 0.000000 0.000000 10.502597 3.940784 8.045682 -8.073461 -5.552796 -85.244327 -25.617100 2.181390 5.904999 -44.207901 -8.667460 31.758101 0.000000 -21.396200 0.000000 11.223900 12.635400 -1.959770 32.669399 -2.360820 3.140991 44.573502 11.530400 -0.368988 0.000000 17.372801 0.000000 2.062410 -13.083300 -31.021099 -4.908588 -10.411540 0.537053 0.000000 0.000000 20.552200 -19.528006 13.267935 -10.813782 0.000000 0.000000 -19.421060 1.729873 18.032464 -1.013057 0.000000 0.000000 23.297501 32.907538 -5.797934 -15.052813 0.000000 0.000000 -16.322800 
-19.383267 8.863065 56.934618 178.379286 11.425750 176.564903 2.631261 0.942048 -15.883903 -6.002871 3.906226 20.794640 0.000000 0.000000 0.000000 10.625455 3.835977 8.073852 -8.071825 -5.555461 -85.251457 -25.640499 2.229150 5.893005 -44.174198 -8.584090 31.819000 0.000000 -21.487499 0.000000 11.379700 12.645500 -1.806650 32.640400 -2.488900 3.127014 44.540501 11.551500 -0.248993 0.000000 17.458500 0.000000 2.006130 -12.979000 -31.328501 -4.835697 -10.418893 0.269661 0.000000 0.000000 20.733801 -19.555942 13.183327 -10.857173 0.000000 0.000000 -19.397450 1.701478 17.965748 -1.160996 0.000000 0.000000 23.266800 32.918751 -5.744529 -15.022907 0.000000 0.000000 -16.364870 
